<svg id="sourcelabs" data-name="sourcelabs" xmlns="http://www.w3.org/2000/svg" viewBox="0 0 656.22 186.41"><defs><style>.cls-1{fill:#1d70b8;}.cls-2{fill:#3c3c3b;}</style></defs><title>sourcelabs.nl - logo</title><path class="cls-1" d="M337.11,286.05a11.73,11.73,0,0,0-1.73-1.29,21.28,21.28,0,0,0-3.06-1.6,26.49,26.49,0,0,0-3.91-1.32,17.08,17.08,0,0,0-4.28-.54q-3.87,0-5.78,1.43a4.72,4.72,0,0,0-1.9,4,4.12,4.12,0,0,0,.71,2.48,6.18,6.18,0,0,0,2.07,1.73,17.43,17.43,0,0,0,3.43,1.36q2.07.61,4.79,1.29,3.53,1,6.42,2a17.44,17.44,0,0,1,4.89,2.72,11.25,11.25,0,0,1,3.09,3.91,13,13,0,0,1,1.09,5.61,14,14,0,0,1-1.46,6.63,12.28,12.28,0,0,1-3.94,4.45,17.11,17.11,0,0,1-5.71,2.48,28.68,28.68,0,0,1-6.76.78,36.33,36.33,0,0,1-10.74-1.63,33.11,33.11,0,0,1-9.51-4.62l4.15-8.09a13,13,0,0,0,2.21,1.6,33.31,33.31,0,0,0,3.77,2,29.16,29.16,0,0,0,4.82,1.67,21.82,21.82,0,0,0,5.44.68q7.75,0,7.75-5a4.08,4.08,0,0,0-.88-2.65,7.51,7.51,0,0,0-2.52-1.9,24.1,24.1,0,0,0-3.94-1.5l-5.17-1.49a43.83,43.83,0,0,1-6-2.07,15.8,15.8,0,0,1-4.25-2.65,9.94,9.94,0,0,1-2.55-3.53,12.22,12.22,0,0,1-.85-4.79,15,15,0,0,1,1.36-6.52,13.2,13.2,0,0,1,3.77-4.76,17.11,17.11,0,0,1,5.61-2.89,23.2,23.2,0,0,1,6.86-1,26.68,26.68,0,0,1,9.38,1.6,35,35,0,0,1,7.48,3.77Z" transform="translate(-92.84 -204.44)"/><path class="cls-1" d="M370.61,322a21.9,21.9,0,0,1-9.61-2.07,23.58,23.58,0,0,1-7.41-5.5,25.52,25.52,0,0,1-6.49-16.89,24.24,24.24,0,0,1,1.8-9.24,25.47,25.47,0,0,1,5-7.81,23.67,23.67,0,0,1,7.51-5.4,22.31,22.31,0,0,1,9.45-2,21.19,21.19,0,0,1,9.55,2.14,23.85,23.85,0,0,1,7.37,5.61,25.84,25.84,0,0,1,4.76,7.88,24.84,24.84,0,0,1,1.7,9,24.39,24.39,0,0,1-1.77,9.21,25,25,0,0,1-4.89,7.75,23.55,23.55,0,0,1-7.48,5.37A22.29,22.29,0,0,1,370.61,322Zm-14-24.46a19.41,19.41,0,0,0,1,6,16.13,16.13,0,0,0,2.75,5.16,13.68,13.68,0,0,0,4.42,3.6,13.68,13.68,0,0,0,12,0,13.71,13.71,0,0,0,4.42-3.7,16.52,16.52,0,0,0,2.72-5.2,19.34,19.34,0,0,0,.92-5.88,18.87,18.87,0,0,0-1-6,16.73,16.73,0,0,0-2.79-5.16,13.31,13.31,0,0,0-4.42-3.57,13.77,13.77,0,0,0-11.93.07,13.42,13.42,0,0,0-4.42,3.67,16.49,16.49,0,0,0-2.69,5.16A19.34,19.34,0,0,0,356.62,297.54Z" transform="translate(-92.84 -204.44)"/><path class="cls-1" d="M421.78,313.71a10.76,10.76,0,0,0,5.61-1.36,11,11,0,0,0,3.67-3.53,14.63,14.63,0,0,0,2-5,28.89,28.89,0,0,0,.58-5.81v-24.6h9.31V298a35.25,35.25,0,0,1-1.19,9.31,21.36,21.36,0,0,1-3.74,7.61,17.89,17.89,0,0,1-6.56,5.16,22.17,22.17,0,0,1-9.58,1.9,21.92,21.92,0,0,1-9.82-2,18.3,18.3,0,0,1-6.56-5.3,21.14,21.14,0,0,1-3.63-7.64,36,36,0,0,1-1.12-9v-24.6h9.38V298a29,29,0,0,0,.58,5.88,14.52,14.52,0,0,0,2,5,10.23,10.23,0,0,0,9.14,4.83Z" transform="translate(-92.84 -204.44)"/><path class="cls-1" d="M452.36,321.66V273.41H473.7a13.7,13.7,0,0,1,6.15,1.39,15.93,15.93,0,0,1,4.86,3.67,17.32,17.32,0,0,1,3.19,5.17,15.54,15.54,0,0,1,1.15,5.81,16,16,0,0,1-2.34,8.53,13.46,13.46,0,0,1-6.35,5.54l11,18.14H480.84L471,305.49h-9.24v16.17Zm9.38-24.4H473.5a5,5,0,0,0,2.41-.61,6.14,6.14,0,0,0,1.94-1.66,8.32,8.32,0,0,0,1.29-2.48,9.65,9.65,0,0,0,.48-3.06,8.69,8.69,0,0,0-.54-3.13,8.21,8.21,0,0,0-1.46-2.48,6.64,6.64,0,0,0-2.11-1.63,5.49,5.49,0,0,0-2.41-.58H461.74Z" transform="translate(-92.84 -204.44)"/><path class="cls-1" d="M494.63,297.2a25,25,0,0,1,1.6-8.73,23.43,23.43,0,0,1,12.13-13.22,23.1,23.1,0,0,1,10.06-2.11,21.94,21.94,0,0,1,11.52,2.92,18.66,18.66,0,0,1,7.24,7.61l-7.2,5a12.41,12.41,0,0,0-2.31-3.43,11.56,11.56,0,0,0-2.92-2.21,13.15,13.15,0,0,0-3.26-1.19,15.54,15.54,0,0,0-3.33-.37,12.65,12.65,0,0,0-6.15,1.43,13.53,13.53,0,0,0-4.35,3.7,16.37,16.37,0,0,0-2.62,5.16,19.54,19.54,0,0,0-.88,5.74,18.72,18.72,0,0,0,1,6.15,16.33,16.33,0,0,0,2.89,5.2,14.43,14.43,0,0,0,4.48,3.6,12.26,12.26,0,0,0,5.74,1.36,15.16,15.16,0,0,0,3.4-.41,13,13,0,0,0,3.37-1.29,12.74,12.74,0,0,0,3-2.28,10.48,10.48,0,0,0,2.17-3.36l7.68,4.42a14.51,14.51,0,0,1-3.29,4.79,21.26,21.26,0,0,1-4.83,3.5,24.65,24.65,0,0,1-5.74,2.17,25.17,25.17,0,0,1-6,.75,20.54,20.54,0,0,1-9.44-2.17,24.55,24.55,0,0,1-7.37-5.67,26.35,26.35,0,0,1-4.83-8A24.81,24.81,0,0,1,494.63,297.2Z" transform="translate(-92.84 -204.44)"/><path class="cls-1" d="M577.67,313.44v8.22h-33.5V273.41h32.89v8.22H553.55v11.62h20.32v7.61H553.55v12.57Z" transform="translate(-92.84 -204.44)"/><path class="cls-2" d="M586.3,321.66V273.41h3.46v45.12h28.81v3.13Z" transform="translate(-92.84 -204.44)"/><path class="cls-2" d="M640.94,273.41h3l20.39,48.25h-3.67l-6.73-15.9h-23l-6.73,15.9h-3.74Zm12,29.49-10.53-25.28L631.7,302.91Z" transform="translate(-92.84 -204.44)"/><path class="cls-2" d="M707.19,309.16a11.92,11.92,0,0,1-1,4.93,12.57,12.57,0,0,1-2.79,4,12.7,12.7,0,0,1-4.15,2.65,13.37,13.37,0,0,1-5,1H671.65V273.41h22.49a9.54,9.54,0,0,1,4.56,1.09,11.37,11.37,0,0,1,3.46,2.82,12.88,12.88,0,0,1,2.21,3.94,13.28,13.28,0,0,1,.78,4.45,12.83,12.83,0,0,1-1.84,6.73,10.89,10.89,0,0,1-5.1,4.48,12,12,0,0,1,6.56,4.59A12.81,12.81,0,0,1,707.19,309.16Zm-32.08-32.62v19.3h17.67a8,8,0,0,0,3.6-.81,9.42,9.42,0,0,0,2.82-2.14,10.25,10.25,0,0,0,2.55-6.69,10.54,10.54,0,0,0-.65-3.7,10.24,10.24,0,0,0-1.77-3.06,8.44,8.44,0,0,0-2.68-2.11,7.66,7.66,0,0,0-3.47-.78Zm28.61,32.14A10.46,10.46,0,0,0,703,305a10.35,10.35,0,0,0-1.9-3.19,9.2,9.2,0,0,0-2.89-2.21,8,8,0,0,0-3.57-.81H675.12v19.77h19.1a8.74,8.74,0,0,0,3.77-.82,9.33,9.33,0,0,0,3-2.21,11.15,11.15,0,0,0,2-3.16A9.32,9.32,0,0,0,703.73,308.68Z" transform="translate(-92.84 -204.44)"/><path class="cls-2" d="M744.71,281.43q-4.69-5.23-13.25-5.23-7.07,0-10.3,2.69a8.92,8.92,0,0,0-3.23,7.24,8.12,8.12,0,0,0,.81,3.84,7,7,0,0,0,2.55,2.62,16.87,16.87,0,0,0,4.39,1.84q2.65.75,6.39,1.56t7,1.8a20.41,20.41,0,0,1,5.37,2.48,10.51,10.51,0,0,1,3.4,3.67,11.09,11.09,0,0,1,1.19,5.37,11.75,11.75,0,0,1-1.26,5.57,11.18,11.18,0,0,1-3.53,4,16.58,16.58,0,0,1-5.44,2.41,28.18,28.18,0,0,1-7,.81,27.14,27.14,0,0,1-19.1-7.2l1.83-2.79a22.12,22.12,0,0,0,7.48,5.06,25.22,25.22,0,0,0,9.92,1.87q6.32,0,9.89-2.31a7.77,7.77,0,0,0,3.57-7,8,8,0,0,0-1-4,8.57,8.57,0,0,0-2.82-2.89,18.87,18.87,0,0,0-4.72-2.11q-2.85-.88-6.66-1.7t-6.83-1.73a18,18,0,0,1-5-2.31,9.27,9.27,0,0,1-3-3.36,10.73,10.73,0,0,1-1-5,12.74,12.74,0,0,1,1.26-5.78,12.18,12.18,0,0,1,3.5-4.25,15.61,15.61,0,0,1,5.37-2.62,25.45,25.45,0,0,1,6.93-.88,23.41,23.41,0,0,1,8.36,1.39,19.72,19.72,0,0,1,6.66,4.25Z" transform="translate(-92.84 -204.44)"/><path class="cls-2" d="M259.41,333.55c-.82-9.53-6.48-20.62-16-31.82,14.36-16.94,20-33.64,13.29-45.06-5.6-9.56-19-13.68-37.61-11.58-2.4.27-4.86.65-7.35,1.11-5.36-15-12.89-26-21.64-30.81,0-.12,0-.23,0-.35a10.61,10.61,0,0,0-21.22,0c0,.24.05.46.07.69-8.51,5-15.84,15.81-21.08,30.46q-.55,1.53-1.06,3.11a153.23,153.23,0,0,0-6.32,30q-.25,2.18-.45,4.4c-.19,2.17-.34,4.37-.47,6.6q-.1,1.85-.17,3.73l3.2,2,39.43,24.42,1.72-2.77-41-25.4q.27-5.73.87-11.21a187.68,187.68,0,0,1,36.18-21.16A191.22,191.22,0,0,1,216,281q1.82,1.35,3.57,2.71a149.26,149.26,0,0,1,19.46,18,137,137,0,0,1-10,10q-.1,2.14-.25,4.62a143.19,143.19,0,0,0,12.4-12.1c8.56,10.17,13.81,20.14,14.84,28.64-.12,0-.24,0-.36,0A10.61,10.61,0,0,0,248.2,351c-5.7,3.68-14.22,5.23-25,4.5q-.39,1.61-.81,3.2c2,.15,3.9.25,5.74.25,9.69,0,17.42-2.07,22.83-6a10.5,10.5,0,0,0,4.71,1.15,10.59,10.59,0,0,0,3.7-20.52ZM159.34,266.75c-5.29,3.1-10.35,6.4-15.15,9.84A148.41,148.41,0,0,1,150.11,250a145.15,145.15,0,0,1,25.71,8.12C170.32,260.69,164.8,263.56,159.34,266.75Zm-8.16-19.85c4.76-13.18,11.21-23,18.57-27.79a10.58,10.58,0,0,0,19.7-.32c7.56,4.65,14.19,14.64,19.06,28.12a152.15,152.15,0,0,0-28.66,9.43A152.15,152.15,0,0,0,151.18,246.9Zm49.16,19.85c-5.46-3.2-11-6.07-16.49-8.63A145.16,145.16,0,0,1,209.58,250a148.37,148.37,0,0,1,5.91,26.55C210.74,273.17,205.69,269.89,200.35,266.75Zm18.79,12.47a153.14,153.14,0,0,0-6.31-29.91c2.26-.41,4.48-.74,6.65-1a78.91,78.91,0,0,1,8.77-.52c12.66,0,21.63,3.62,25.66,10.5,5.88,10,.5,25.24-12.67,40.9A154,154,0,0,0,219.13,279.22Z" transform="translate(-92.84 -204.44)"/><path class="cls-2" d="M177.78,282.4l-1.72,2.77,40.87,25.32q-.27,6.13-.91,12a191.21,191.21,0,0,1-36.18,21.1,187.68,187.68,0,0,1-36.18-21.16c-1.19-.88-2.41-1.76-3.57-2.66a146.49,146.49,0,0,1-19.32-18,138,138,0,0,1,9.74-9.86c.06-1.39.14-2.91.24-4.53a142.1,142.1,0,0,0-12.15,11.92c-1.68-2-3.27-4-4.71-6-10.14-14.14-13-26.54-8.11-34.92,4-6.88,13-10.5,25.66-10.5,1.56,0,3.19.07,4.86.18q.39-1.62.81-3.23c-16.84-1.23-28.9,2.94-34.14,11.9-5.6,9.56-2.67,23.22,8.27,38.47,1.58,2.2,3.34,4.4,5.2,6.59-1.85,2.19-3.62,4.39-5.2,6.59-6.52,9.09-10.17,17.61-10.89,25a10.57,10.57,0,1,0,8.11,19.4c5.41,4,13.23,6.15,23.06,6.15a81.27,81.27,0,0,0,9.06-.53c2.4-.27,4.86-.65,7.35-1.11,7.36,20.57,18.82,33.58,31.92,33.58s24.55-13,31.92-33.58q.55-1.53,1.07-3.11a153.12,153.12,0,0,0,6.31-29.91q.25-2.22.46-4.49c.22-2.39.38-4.83.51-7.3q.1-1.86.16-3.74l-3.2-2Zm-37.57,72.73c-12.75,1.43-22.73-.13-29.07-4.4a10.57,10.57,0,0,0-7.48-17.86c.84-6.64,4.27-14.34,10.22-22.64,1.44-2,3-4,4.71-6a153.61,153.61,0,0,0,21.94,19.94,153.22,153.22,0,0,0,6.32,30C144.6,354.56,142.38,354.89,140.21,355.13Zm4-28.26c4.8,3.44,9.85,6.74,15.15,9.84,5.46,3.2,11,6.07,16.49,8.63a145.16,145.16,0,0,1-25.71,8.12A148.42,148.42,0,0,1,144.2,326.87Zm35.65,60.71c-11.51,0-21.82-12.08-28.66-31a152.15,152.15,0,0,0,28.66-9.43,152.15,152.15,0,0,0,28.66,9.43C201.66,375.5,191.36,387.58,179.84,387.58Zm29.73-34.12a145.16,145.16,0,0,1-25.71-8.12c5.51-2.56,11-5.43,16.49-8.63s10.4-6.41,15.14-9.8A148.37,148.37,0,0,1,209.58,353.46Z" transform="translate(-92.84 -204.44)"/></svg>